<?xml version="1.0" encoding="utf-8"?>
<!-- Generator: Adobe Illustrator 18.1.1, SVG Export Plug-In . SVG Version: 6.00 Build 0)  -->
<svg version="1.1" id="Layer_1" xmlns="http://www.w3.org/2000/svg" xmlns:xlink="http://www.w3.org/1999/xlink" x="0px" y="0px"
	 viewBox="0 0 59.5 46.9" enable-background="new 0 0 59.5 46.9" xml:space="preserve">
<g>
	<g>
		<g>
			<g>
				<path fill="#231F20" d="M4.8-17.5l-1.5,0l0.7,0l-0.7,0c0-0.8,1-20.2,27.4-20.2c23.4,0,24.1-18,24.1-18.2c0-0.4,0.3-0.7,0.7-0.7
					c0,0,0,0,0,0c0.4,0,0.7,0.3,0.7,0.7c0,0.2-0.7,19.6-25.6,19.6C5.7-36.3,4.8-18.3,4.8-17.5z"/>
			</g>
		</g>
		<g>
			<g>
				<path fill="#231F20" d="M32.9-32.8C32.9-32.8,32.9-32.8,32.9-32.8l-6.4-0.1c-0.5,0-0.9-0.4-0.9-0.9l0.1-6.4
					c0-0.5,0.4-0.9,0.9-0.9l6.4,0.1c0,0,0,0,0,0c0.2,0,0.5,0.1,0.6,0.3c0.2,0.2,0.3,0.4,0.3,0.7l-0.1,6.4
					C33.8-33.2,33.4-32.8,32.9-32.8z M27.1-34.4l5.3,0.1l0.1-5.3l-5.3-0.1L27.1-34.4z"/>
			</g>
		</g>
		<g>
			<g>
				<path fill="#231F20" d="M1.2-13.3C1.2-13.3,1.2-13.3,1.2-13.3c-0.5,0-0.9-0.4-0.9-0.9l0-6.5c0-0.5,0.4-0.9,0.9-0.9l6.5,0
					c0.5,0,0.9,0.4,0.9,0.9l0,6.5c0,0.5-0.4,0.9-0.9,0.9L1.2-13.3C1.2-13.3,1.2-13.3,1.2-13.3z M1.7-20.1l0,5.3l5.3,0l0-5.3
					L1.7-20.1z"/>
			</g>
		</g>
		<g>
			<g>
				<path fill="#231F20" d="M52.5-52.1C52.5-52.1,52.5-52.1,52.5-52.1c-0.5,0-0.9-0.4-0.9-0.9l0-5.9c0-0.5,0.4-0.9,0.9-0.9l5.9,0
					c0.5,0,0.9,0.4,0.9,0.9l0,5.9c0,0.5-0.4,0.9-0.9,0.9L52.5-52.1z M53.1-58.3l0,4.7l4.7,0l0-4.7L53.1-58.3z"/>
			</g>
		</g>
		<g>
			<g>
				<g>
					<path fill="#231F20" d="M6-36.3c-0.4,0-0.7-0.3-0.7-0.7c0-0.4,0.3-0.7,0.7-0.7l48.3,0c0.4,0,0.7,0.3,0.7,0.7
						c0,0.4-0.3,0.7-0.7,0.7L6-36.3z"/>
				</g>
			</g>
			<g>
				<g>
					<path fill="#231F20" d="M54.3-34.7c-0.7,0-1.4-0.3-1.8-0.9c-0.8-1-0.6-2.5,0.4-3.3c1-0.8,2.5-0.6,3.3,0.4
						c0.8,1,0.6,2.5-0.4,3.3C55.4-34.9,54.8-34.7,54.3-34.7z M54.3-37.9c-0.1,0-0.3,0-0.5,0.2c-0.2,0.1-0.3,0.3-0.3,0.6
						c0,0.2,0,0.4,0.2,0.6c0.3,0.3,0.8,0.4,1.2,0.1c0.4-0.3,0.4-0.8,0.1-1.2C54.8-37.8,54.6-37.9,54.3-37.9z"/>
				</g>
			</g>
			<g>
				<g>
					<path fill="#231F20" d="M5.9-34.7c-0.7,0-1.4-0.3-1.8-0.9c-0.8-1-0.6-2.5,0.4-3.3c1-0.8,2.5-0.6,3.3,0.4
						c0.4,0.5,0.6,1.1,0.5,1.7c-0.1,0.6-0.4,1.2-0.9,1.6C6.9-34.9,6.4-34.7,5.9-34.7z M5.9-37.9c-0.1,0-0.3,0-0.5,0.2
						C5-37.4,5-36.9,5.2-36.5c0.3,0.3,0.8,0.4,1.2,0.1c0.2-0.1,0.3-0.3,0.3-0.6c0-0.2,0-0.4-0.2-0.6C6.4-37.8,6.1-37.9,5.9-37.9z"/>
				</g>
			</g>
		</g>
	</g>
</g>
<g>
	<g>
		<g>
			<g>
				<g>
					<g>
						<g>
							<g>
								<path fill="#231F20" d="M14.9,92.2H-4.7c-1.1,0-2.1-0.9-2.1-2.1V77c0-1.1,0.9-2.1,2.1-2.1h19.6c1.1,0,2.1,0.9,2.1,2.1v13.1
									C17,91.3,16.1,92.2,14.9,92.2z M-4.7,76.4c-0.3,0-0.6,0.3-0.6,0.6v13.1c0,0.3,0.3,0.6,0.6,0.6h19.6c0.3,0,0.6-0.3,0.6-0.6
									V77c0-0.3-0.3-0.6-0.6-0.6H-4.7z"/>
							</g>
							<g>
								<path fill="#231F20" d="M16.3,88.6H-6c-0.4,0-0.7-0.3-0.7-0.7c0-0.4,0.3-0.7,0.7-0.7h22.3c0.4,0,0.7,0.3,0.7,0.7
									C17,88.2,16.7,88.6,16.3,88.6z"/>
							</g>
						</g>
						<g>
							<defs>
								<path id="SVGID_1_" d="M14.9,92.2H-4.7c-1.1,0-2.1-0.9-2.1-2.1V77c0-1.1,0.9-2.1,2.1-2.1h19.6c1.1,0,2.1,0.9,2.1,2.1v13.1
									C17,91.3,16.1,92.2,14.9,92.2z M-4.7,76.4c-0.3,0-0.6,0.3-0.6,0.6v13.1c0,0.3,0.3,0.6,0.6,0.6h19.6c0.3,0,0.6-0.3,0.6-0.6
									V77c0-0.3-0.3-0.6-0.6-0.6H-4.7z"/>
							</defs>
							<use xlink:href="#SVGID_1_"  overflow="visible" fill="#231F20"/>
							<clipPath id="SVGID_2_">
								<use xlink:href="#SVGID_1_"  overflow="visible"/>
							</clipPath>
						</g>
					</g>
				</g>
			</g>
			<g>
				<g>
					<path fill="#231F20" d="M36,104.4H18c-0.4,0-0.7-0.3-0.7-0.7V99c0-0.4,0.3-0.7,0.7-0.7c0.4,0,0.7,0.3,0.7,0.7v4H36
						c0.4,0,0.7,0.3,0.7,0.7C36.7,104.1,36.4,104.4,36,104.4z"/>
				</g>
				<g>
					<path fill="#231F20" d="M37.7,120.8c-1.3,0-2.4-1.1-2.4-2.4V99.7H-8.5v18.7c0,1.3-1.1,2.4-2.4,2.4c-1.3,0-2.4-1.1-2.4-2.4V99.7
						c-1.5-0.2-2.6-1.4-2.6-2.9c0-1.6,1.3-2.9,2.9-2.9h52.4c1.6,0,2.9,1.3,2.9,2.9c0,1.4-1,2.6-2.3,2.9v18.7
						C40.1,119.7,39,120.8,37.7,120.8z M-9.2,98.3H36c0.4,0,0.7,0.3,0.7,0.7v19.4c0,0.5,0.4,1,1,1c0.5,0,1-0.4,1-1V99
						c0-0.4,0.3-0.7,0.7-0.7c0.9,0,1.5-0.7,1.5-1.5c0-0.8-0.7-1.5-1.5-1.5H-13c-0.8,0-1.5,0.7-1.5,1.5c0,0.8,0.7,1.5,1.5,1.5h0.4
						c0.4,0,0.7,0.3,0.7,0.7v19.4c0,0.5,0.4,1,1,1c0.5,0,1-0.4,1-1V99C-10,98.6-9.6,98.3-9.2,98.3z"/>
				</g>
			</g>
			<g>
				<g>
					<path fill="#231F20" d="M27.5,88.3c-0.2,0-0.5-0.1-0.7-0.3L23,84.2c-0.3-0.3-0.3-0.6-0.2-1c0.1-0.3,0.4-0.6,0.8-0.6l3.9-0.4
						c0.2,0,0.5,0.1,0.6,0.3l0.6,0.8c0.1,0.2,0.2,0.4,0.2,0.6l-0.4,3.7c0,0.2-0.1,0.4-0.3,0.6C28,88.2,27.8,88.3,27.5,88.3z
						 M24.8,84l2.3,2.2l0.3-2.3l-0.2-0.2L24.8,84z"/>
				</g>
			</g>
			<g>
				<path fill="#231F20" d="M5,95.2c-0.4,0-0.7-0.3-0.7-0.7v-2.8c0-0.4,0.3-0.7,0.7-0.7s0.7,0.3,0.7,0.7v2.8
					C5.7,94.9,5.4,95.2,5,95.2z"/>
			</g>
		</g>
	</g>
	<g>
		<path fill="#231F20" d="M32.8,95.2c-0.4,0-0.7-0.3-0.7-0.7v-6.2c0-1.9-0.4-3.2-1.3-3.8c-1.1-0.8-2.7-0.4-2.7-0.4
			c-0.4,0.1-0.8-0.1-0.9-0.5c-0.1-0.4,0.1-0.8,0.5-0.9c0.1,0,2.3-0.7,4,0.6c1.3,0.9,1.9,2.6,1.9,5v6.2
			C33.6,94.9,33.2,95.2,32.8,95.2z"/>
	</g>
</g>
<g>
	<g>
		<path fill="#231F20" d="M80,130.1c-10.6,0-16.1-3-20.8-6c-5.6-3.6-7.2-24.4-7.2-26.5c0-2.5,1-11.7,1.1-12.1c0-0.3,0.3-0.6,0.6-0.6
			c0.3,0,0.6,0.1,0.8,0.4c0,0.1,2.3,5.3,4.1,8.7c1.4,2.7,5,4.1,6.1,4.5c4.7-2.6,8.2-3.8,10.8-3.8c1.5,0,2.5,0.4,3.5,0.8
			c0.2,0.1,0.3,0.1,0.5,0.2c0.2,0.1,0.5,0.2,0.7,0.3c0.2-0.1,0.4-0.2,0.7-0.3c0.1-0.1,0.3-0.1,0.5-0.2c0.9-0.4,1.9-0.8,3.5-0.8
			c2.6,0,6.2,1.3,10.8,3.8c1-0.4,4.6-1.8,6.1-4.5c1.8-3.4,4.1-8.6,4.1-8.7c0.1-0.3,0.4-0.5,0.8-0.4c0.3,0,0.6,0.3,0.6,0.6
			c0,0.4,1.1,9.6,1.1,12.1c0,2.1-1.7,23-7.2,26.5C96.1,127.2,90.6,130.1,80,130.1z M54.2,88.3c-0.3,3-0.8,7.7-0.8,9.3
			c0,2.9,2,22.4,6.6,25.4c4.5,2.9,9.8,5.8,20,5.8c10.2,0,15.3-2.7,20-5.8c4.6-3,6.6-22.5,6.6-25.4c0-1.6-0.5-6.3-0.8-9.3
			c-0.8,1.9-2,4.4-3.1,6.4c-2,3.7-7,5.2-7.2,5.2c-0.2,0.1-0.4,0-0.6-0.1c-4.6-2.6-8-3.8-10.4-3.8c-1.2,0-2,0.3-2.8,0.7
			c-0.2,0.1-0.4,0.2-0.5,0.2c-0.5,0.2-0.5,0.2-0.5,0.3c-0.1,0.3-0.4,0.5-0.7,0.5h0c-0.3,0-0.6-0.2-0.7-0.5c0-0.1,0-0.1-0.5-0.3
			c-0.1-0.1-0.3-0.1-0.5-0.2c-0.8-0.4-1.6-0.7-2.8-0.7c-2.4,0-5.8,1.2-10.4,3.8c-0.2,0.1-0.4,0.1-0.6,0.1c-0.2-0.1-5.2-1.6-7.2-5.2
			C56.3,92.7,55,90.1,54.2,88.3z M84.5,106.5h-9c-4,0-5.4-0.4-6.7-4.7c-0.1-0.2,0-0.4,0.1-0.5c0.1-0.2,0.3-0.3,0.5-0.3
			c0.2,0,4.1-0.8,8.5-0.8c0.7,0,1.5,0,2.1,0.1c0.7,0,1.4-0.1,2.2-0.1c4.4,0,8.3,0.8,8.5,0.8c0.2,0,0.4,0.2,0.5,0.3
			c0.1,0.2,0.1,0.4,0.1,0.5C89.9,106.2,87.7,106.5,84.5,106.5z M70.4,102.1c1,2.9,1.8,3,5.1,3h9c2.6,0,4.1-0.1,5.1-3
			c-1.3-0.2-4.3-0.7-7.4-0.7c-0.7,0-1.4,0-2,0.1c0,0-0.1,0-0.1,0c-0.1,0-0.1,0-0.1,0c-0.6,0-1.3-0.1-2-0.1
			C74.7,101.4,71.8,101.9,70.4,102.1z"/>
	</g>
</g>
<g>
	<g>
		<g>
			<g>
				<g>
					<g>
						<path fill="#231F20" d="M-38.1,55.3c-0.3,0-0.5-0.2-0.6-0.5c-0.1-0.5,0.3-0.6,0.5-0.7c3.2-1.4,3.9-2.6,4-3.3
							c0.3-1.8-0.9-4.1-3.6-6.8c-5-5-2.3-8.5-2.2-8.6c0.2-0.3,0.6-0.3,0.8-0.1c0.3,0.2,0.3,0.6,0.1,0.8c-0.1,0.1-2.1,2.9,2.1,7.1
							c3,3,4.3,5.6,4,7.8c-0.2,1.5-1.8,2.9-4.6,4.1l-0.1,0C-37.9,55.2-38,55.3-38.1,55.3z"/>
					</g>
				</g>
			</g>
			<g>
				<g>
					<g>
						<path fill="#231F20" d="M-41.9,54.9c-0.1,0-0.2,0-0.3-0.1c-0.3-0.2-0.4-0.5-0.2-0.8c2.8-4.5,0.7-6.6-2.1-9.4
							c-0.6-0.6-1.2-1.2-1.8-1.9c-1.3-1.5-1.8-3-1.6-4.7c0.7-3.9,5.8-6.8,6-6.9c0.3-0.2,0.6-0.1,0.8,0.2c0.2,0.3,0.1,0.6-0.2,0.8
							c0,0-4.8,2.7-5.4,6.1c-0.2,1.3,0.2,2.5,1.3,3.7c0.6,0.6,1.2,1.2,1.8,1.8c2.9,2.8,5.6,5.5,2.3,10.8
							C-41.5,54.8-41.7,54.9-41.9,54.9z"/>
					</g>
				</g>
			</g>
			<g>
				<g>
					<g>
						<path fill="#231F20" d="M-47.3,54.8c0,0-0.1,0-0.1,0c-0.3-0.1-0.5-0.4-0.5-0.7c1-5-1.7-6.4-5-8.1c-1.4-0.7-2.2-1.8-2.5-3.1
							c-0.6-3.1,2.4-6.6,2.5-6.8c0.2-0.2,0.6-0.3,0.8-0.1c0.2,0.2,0.3,0.6,0.1,0.8c0,0-2.7,3.2-2.2,5.8c0.2,1,0.8,1.7,1.9,2.3
							c3.5,1.8,6.7,3.5,5.6,9.3C-46.8,54.6-47,54.8-47.3,54.8z"/>
					</g>
				</g>
			</g>
			<g>
				<g>
					<g>
						<path fill="#231F20" d="M-35.2,73.7c-0.2,0-0.4-0.1-0.5-0.3c-0.1-0.3,0-0.6,0.2-0.8c1.7-0.9,3-2.2,3.9-3.9
							c0.1-0.2,0.3-0.3,0.4-0.3c2.7-0.4,4.5-2.5,4.5-5.3c0-2-0.7-4.7-2.6-5.4h-25.4c0,4.4,0,11.8,5.8,14.8c0.3,0.2,0.4,0.5,0.2,0.8
							c-0.1,0.3-0.5,0.4-0.8,0.2c-6.4-3.4-6.4-11.5-6.4-15.9l0-0.5c0-0.3,0.3-0.6,0.6-0.6h26.1c0.1,0,0.1,0,0.2,0
							c2.6,0.9,3.5,4,3.5,6.5c0,3.3-2.1,5.8-5.3,6.4c-1,1.8-2.5,3.2-4.3,4.1C-35,73.7-35.1,73.7-35.2,73.7z"/>
					</g>
				</g>
			</g>
			<g>
				<g>
					<g>
						<path fill="#231F20" d="M-42.3,77.4c-2.7,0-7.1-0.3-10.9-0.9c-6.5-1-7.3-2.4-7.3-3.3c0-0.3,0.3-0.6,0.6-0.6h35.4
							c0.3,0,0.6,0.3,0.6,0.6c0,1.6-2.2,2.7-6.9,3.4C-33.9,77.1-38.2,77.4-42.3,77.4z M-58.8,73.7c1.9,1.2,9.1,2.5,16.5,2.5
							c8.2,0,15.3-1.1,16.9-2.5H-58.8z"/>
					</g>
				</g>
			</g>
		</g>
	</g>
	<g>
		<path fill="#231F20" d="M-30.7,66.2c0,0-0.1,0-0.1,0c-0.3-0.1-0.5-0.4-0.4-0.7l1.1-5.4c0.1-0.3,0.4-0.5,0.7-0.4
			c0.3,0.1,0.5,0.4,0.4,0.7l-1.1,5.4C-30.2,66-30.4,66.2-30.7,66.2z"/>
	</g>
</g>
<g>
	<g>
		<g>
			<g>
				<path fill="#231F20" d="M155.2,113.9c-0.1,0-0.3,0-0.4-0.1c-0.3-0.2-0.4-0.7-0.2-1l7.5-11c0.1-0.1,0.2-0.2,0.4-0.3l2.3-0.9
					l5.2-6.9c0.1-0.1,0.2-0.2,0.3-0.2l3.1-1.3c0.2-0.1,0.5-0.1,0.7,0.1l2.7,2c0.1,0,0.1,0.1,0.2,0.1l8.9,11.9l2.2,0.6
					c0.2,0.1,0.3,0.2,0.4,0.3l3.2,5.2c0.2,0.3,0.1,0.8-0.2,1c-0.3,0.2-0.8,0.1-1-0.2l-3-4.9l-2.2-0.6c-0.2,0-0.3-0.1-0.4-0.3l-9-12
					l-2.3-1.7l-2.5,1l-5.2,6.9c-0.1,0.1-0.2,0.2-0.3,0.2l-2.3,0.9l-7.4,10.8C155.7,113.8,155.4,113.9,155.2,113.9z"/>
			</g>
		</g>
		<g>
			<g>
				<path fill="#231F20" d="M144.9,129.3c-0.1,0-0.3,0-0.4-0.1c-0.3-0.2-0.4-0.7-0.2-1l9.1-15c0.1-0.1,0.2-0.3,0.4-0.3l2.6-0.9
					c0.1,0,0.3,0,0.4,0l14.2,3.1l16.2-4.5c0.2,0,0.3,0,0.5,0l6.4,2.8c0.1,0.1,0.3,0.2,0.3,0.3l8.2,14.4c0.2,0.4,0.1,0.8-0.3,1
					c-0.3,0.2-0.8,0.1-1-0.3l-8.1-14.2l-5.9-2.6l-16.1,4.5c-0.1,0-0.2,0-0.4,0l-14.2-3.1l-2.1,0.7l-9,14.8
					C145.4,129.2,145.2,129.3,144.9,129.3z"/>
			</g>
		</g>
		<g>
			<g>
				<path fill="#231F20" d="M172.9,111.2c-0.1,0-0.1,0-0.2,0l-8.9-2.1c-0.3-0.1-0.5-0.3-0.5-0.6l-1.3-6.1c-0.1-0.4,0.1-0.7,0.5-0.9
					l2.5-0.9c0.4-0.1,0.8,0.1,0.9,0.4c0.1,0.4-0.1,0.8-0.4,1l-1.9,0.7l1.1,5l8.3,2l14.8-2.7c0.4-0.1,0.8,0.2,0.9,0.6
					c0.1,0.4-0.2,0.8-0.6,0.9l-14.9,2.7C173,111.2,173,111.2,172.9,111.2z"/>
			</g>
		</g>
	</g>
</g>
<g>
	<g>
		<g>
			<g>
				<path fill="#231F20" d="M239.2,94.9H236c-0.3,0-0.6-0.3-0.6-0.6v-3.9l-5.6,3.3c-0.2,0.1-0.4,0.1-0.6,0c-0.2-0.1-0.3-0.3-0.3-0.5
					V90c0-0.2,0.1-0.4,0.3-0.5l6.1-3.5v-2.6l-5.7,3c-0.2,0.1-0.4,0.1-0.6,0c-0.2-0.1-0.3-0.3-0.3-0.5v-6.2l-2.2,1.4V88
					c0,0.2-0.1,0.4-0.3,0.5l-2.8,1.5c-0.2,0.1-0.4,0.1-0.6,0c-0.2-0.1-0.3-0.3-0.3-0.5v-6.3l-3.6,2c-0.1,0.1-0.3,0.1-0.4,0.1
					c-0.1,0-0.3-0.1-0.3-0.3l-1.4-2.5c-0.1-0.1-0.1-0.3,0-0.4c0-0.1,0.1-0.3,0.3-0.3l3.4-1.9l-5.4-3.3c-0.2-0.1-0.3-0.3-0.3-0.5
					c0-0.2,0.1-0.4,0.3-0.5l2.5-1.5c0.2-0.1,0.4-0.1,0.6,0l6.6,3.3l2.2-1.3l-5.7-3.3c-0.2-0.1-0.3-0.3-0.3-0.5
					c0-0.2,0.1-0.4,0.3-0.5l5.7-3.2l-2.2-1.4l-6.5,3.6c-0.2,0.1-0.4,0.1-0.6,0l-2.8-1.7c-0.2-0.1-0.3-0.3-0.3-0.5s0.1-0.4,0.3-0.5
					l5.6-3.2l-3.2-2c-0.3-0.2-0.3-0.5-0.2-0.8l1.4-2.7c0.1-0.1,0.2-0.2,0.4-0.3c0.2,0,0.3,0,0.4,0.1l3.5,2v-6.4
					c0-0.2,0.1-0.4,0.3-0.5c0.2-0.1,0.4-0.1,0.6,0l2.8,1.7c0.2,0.1,0.3,0.3,0.3,0.5v7.1l2.2,1.3v-6.4c0-0.2,0.1-0.4,0.3-0.5
					c0.2-0.1,0.4-0.1,0.6,0l5.7,3.2v-2.5l-6.1-3.6c-0.2-0.1-0.3-0.3-0.3-0.5v-3.4c0-0.2,0.1-0.4,0.3-0.5c0.2-0.1,0.4-0.1,0.6,0
					l5.6,3v-3.2c0-0.3,0.3-0.6,0.6-0.6h3.2c0.3,0,0.6,0.3,0.6,0.6V54l5.4-3c0.2-0.1,0.4-0.1,0.6,0c0.2,0.1,0.3,0.3,0.3,0.5v3.4
					c0,0.2-0.1,0.4-0.3,0.5l-6,3.6v2.4l5.4-3.1c0.2-0.1,0.4-0.1,0.6,0c0.2,0.1,0.3,0.3,0.3,0.5v6.4l2.2-1.3v-7.1
					c0-0.2,0.1-0.4,0.3-0.5l3.1-1.7c0.2-0.1,0.4-0.1,0.6,0c0.2,0.1,0.3,0.3,0.3,0.5v6.4l3.3-2c0.1-0.1,0.3-0.1,0.4-0.1
					c0.1,0,0.3,0.1,0.4,0.3l1.5,2.7c0.2,0.3,0.1,0.6-0.2,0.8l-3.5,2l5.5,3.1c0.2,0.1,0.3,0.3,0.3,0.5c0,0.2-0.1,0.4-0.3,0.5
					l-2.8,1.7c-0.2,0.1-0.4,0.1-0.6,0l-6.4-3.6l-2.2,1.4l5.7,3.2c0.2,0.1,0.3,0.3,0.3,0.5c0,0.2-0.1,0.4-0.3,0.5l-5.7,3.3l2.2,1.3
					l6.6-3.3c0.2-0.1,0.4-0.1,0.6,0l2.7,1.5c0.2,0.1,0.3,0.3,0.3,0.5c0,0.2-0.1,0.4-0.3,0.5l-5.5,3.3l3.4,1.9
					c0.1,0.1,0.2,0.2,0.3,0.3c0,0.1,0,0.3,0,0.4l-1.4,2.5c-0.1,0.1-0.2,0.2-0.4,0.3c-0.1,0-0.3,0-0.4-0.1l-3.5-2v6.3
					c0,0.2-0.1,0.4-0.3,0.5c-0.2,0.1-0.4,0.1-0.6,0l-3.1-1.5c-0.2-0.1-0.3-0.3-0.3-0.5v-6.9l-2.2-1.4v6.2c0,0.2-0.1,0.4-0.3,0.5
					c-0.2,0.1-0.4,0.1-0.6,0l-5.4-3V86l6,3.5c0.2,0.1,0.3,0.3,0.3,0.5v3.2c0,0.2-0.1,0.4-0.3,0.5c-0.2,0.1-0.4,0.1-0.6,0l-5.4-3.2
					v3.9C239.8,94.6,239.5,94.9,239.2,94.9z M236.6,93.7h2.1v-4.3c0-0.2,0.1-0.4,0.3-0.5c0.2-0.1,0.4-0.1,0.6,0l5.4,3.2v-1.9l-6-3.5
					c-0.2-0.1-0.3-0.3-0.3-0.5v-3.9c0-0.2,0.1-0.4,0.3-0.5c0.2-0.1,0.4-0.1,0.6,0l5.4,3v-6.3c0-0.2,0.1-0.4,0.3-0.5
					c0.2-0.1,0.4-0.1,0.6,0l3.4,2.1c0.2,0.1,0.3,0.3,0.3,0.5v6.9l1.9,1v-6.3c0-0.2,0.1-0.4,0.3-0.5c0.2-0.1,0.4-0.1,0.6,0L256,84
					l0.8-1.5l-3.8-2.1c-0.2-0.1-0.3-0.3-0.3-0.5c0-0.2,0.1-0.4,0.3-0.5l5.6-3.3l-1.5-0.9l-6.6,3.3c-0.2,0.1-0.4,0.1-0.6,0l-3.3-2
					c-0.2-0.1-0.3-0.3-0.3-0.5c0-0.2,0.1-0.4,0.3-0.5l5.7-3.3l-5.7-3.1c-0.2-0.1-0.3-0.3-0.3-0.5c0-0.2,0.1-0.4,0.3-0.5l3.3-2.1
					c0.2-0.1,0.4-0.1,0.6,0l6.4,3.6l1.7-1l-5.6-3.1c-0.2-0.1-0.3-0.3-0.3-0.5c0-0.2,0.1-0.4,0.3-0.5l3.8-2.2l-1-1.7l-3.7,2.2
					c-0.2,0.1-0.4,0.1-0.6,0c-0.2-0.1-0.3-0.3-0.3-0.5v-6.4l-1.9,1v7.1c0,0.2-0.1,0.4-0.3,0.5l-3.4,2c-0.2,0.1-0.4,0.1-0.6,0
					c-0.2-0.1-0.3-0.3-0.3-0.5v-6.4l-5.4,3.1c-0.2,0.1-0.4,0.1-0.6,0c-0.2-0.1-0.3-0.3-0.3-0.5v-3.8c0-0.2,0.1-0.4,0.3-0.5l6-3.6v-2
					l-5.4,3c-0.2,0.1-0.4,0.1-0.6,0c-0.2-0.1-0.3-0.3-0.3-0.5v-3.6h-2.1v3.6c0,0.2-0.1,0.4-0.3,0.5c-0.2,0.1-0.4,0.1-0.6,0l-5.6-3
					v2.1l6.1,3.6c0.2,0.1,0.3,0.3,0.3,0.5v3.8c0,0.2-0.1,0.4-0.3,0.5c-0.2,0.1-0.4,0.1-0.6,0l-5.7-3.2v6.4c0,0.2-0.1,0.4-0.3,0.5
					c-0.2,0.1-0.4,0.1-0.6,0l-3.4-2c-0.2-0.1-0.3-0.3-0.3-0.5v-7.1l-1.6-1v6.4c0,0.2-0.1,0.4-0.3,0.5c-0.2,0.1-0.4,0.1-0.6,0
					l-3.8-2.2l-0.9,1.6l3.6,2.2c0.2,0.1,0.3,0.3,0.3,0.5c0,0.2-0.1,0.4-0.3,0.5l-5.6,3.1l1.7,1l6.6-3.6c0.2-0.1,0.4-0.1,0.6,0
					l3.3,2.1c0.2,0.1,0.3,0.3,0.3,0.5c0,0.2-0.1,0.4-0.3,0.5l-5.7,3.1l5.7,3.3c0.2,0.1,0.3,0.3,0.3,0.5c0,0.2-0.1,0.4-0.3,0.5
					l-3.3,2c-0.2,0.1-0.4,0.1-0.6,0l-6.6-3.3l-1.4,0.9l5.5,3.3c0.2,0.1,0.3,0.3,0.3,0.5c0,0.2-0.1,0.4-0.3,0.5l-3.8,2.1L219,84
					l4-2.2c0.2-0.1,0.4-0.1,0.6,0c0.2,0.1,0.3,0.3,0.3,0.5v6.3l1.6-0.9v-6.9c0-0.2,0.1-0.4,0.3-0.5l3.4-2.1c0.2-0.1,0.4-0.1,0.6,0
					c0.2,0.1,0.3,0.3,0.3,0.5V85l5.7-3c0.2-0.1,0.4-0.1,0.6,0c0.2,0.1,0.3,0.3,0.3,0.5v3.9c0,0.2-0.1,0.4-0.3,0.5l-6.1,3.5v1.9
					l5.6-3.3c0.2-0.1,0.4-0.1,0.6,0c0.2,0.1,0.3,0.3,0.3,0.5V93.7z M242.7,81.1c-0.1,0-0.2,0-0.2,0l-3.5-1.5
					c-0.2-0.1-0.3-0.3-0.3-0.5v-4.2c0-0.2,0.1-0.4,0.3-0.5c0.2-0.1,0.4-0.1,0.6,0l3.5,2.2c0.2,0.1,0.3,0.3,0.3,0.5v3.5
					c0,0.2-0.1,0.4-0.3,0.5C242.9,81,242.8,81.1,242.7,81.1z M239.8,78.6l2.3,1v-2.3l-2.3-1.5V78.6z M232.4,81.1
					c-0.1,0-0.2,0-0.3-0.1c-0.2-0.1-0.3-0.3-0.3-0.5v-3.9c0-0.2,0.1-0.4,0.3-0.5l3.6-1.8c0.2-0.1,0.4-0.1,0.6,0
					c0.2,0.1,0.3,0.3,0.3,0.5V79c0,0.2-0.1,0.4-0.4,0.5l-3.6,1.5C232.5,81.1,232.4,81.1,232.4,81.1z M232.9,76.9v2.7l2.5-1v-2.9
					L232.9,76.9z M244.2,74.9c-0.1,0-0.2,0-0.3-0.1l-3.4-2c-0.2-0.1-0.3-0.3-0.3-0.5c0-0.2,0.1-0.4,0.3-0.5l3.4-1.8
					c0.2-0.1,0.4-0.1,0.5,0l3.5,1.8c0.2,0.1,0.3,0.3,0.3,0.5c0,0.2-0.1,0.4-0.3,0.5l-3.5,2C244.4,74.9,244.3,74.9,244.2,74.9z
					 M242.1,72.4l2.2,1.3l2.3-1.3l-2.3-1.2L242.1,72.4z M231.2,74.9c-0.1,0-0.2,0-0.3-0.1l-3.5-2c-0.2-0.1-0.3-0.3-0.3-0.5
					c0-0.2,0.1-0.4,0.3-0.5l3.5-1.8c0.2-0.1,0.4-0.1,0.5,0l3.5,1.8c0.2,0.1,0.3,0.3,0.3,0.5c0,0.2-0.1,0.4-0.3,0.5l-3.5,2
					C231.4,74.9,231.3,74.9,231.2,74.9z M229,72.4l2.3,1.3l2.3-1.3l-2.3-1.2L229,72.4z M239.2,70.7c-0.1,0-0.2,0-0.3-0.1
					c-0.2-0.1-0.3-0.3-0.3-0.5V66c0-0.2,0.1-0.4,0.3-0.5l3.5-1.5c0.2-0.1,0.4-0.1,0.5,0c0.2,0.1,0.3,0.3,0.3,0.5v3.5
					c0,0.2-0.1,0.4-0.3,0.5l-3.5,2.2C239.4,70.7,239.3,70.7,239.2,70.7z M239.8,66.4v2.8l2.3-1.5v-2.3L239.8,66.4z M236,70.7
					c-0.1,0-0.2,0-0.3-0.1l-3.6-2c-0.2-0.1-0.3-0.3-0.3-0.5v-3.8c0-0.2,0.1-0.4,0.3-0.5c0.2-0.1,0.4-0.1,0.5-0.1l3.6,1.5
					c0.2,0.1,0.4,0.3,0.4,0.5v4.2c0,0.2-0.1,0.4-0.3,0.5C236.2,70.7,236.1,70.7,236,70.7z M232.9,67.9l2.5,1.3v-2.8l-2.5-1V67.9z"/>
			</g>
		</g>
	</g>
</g>
<g>
	<g>
		<g>
			<path fill="#231F20" d="M55.8,26.2c-0.4,0-0.7-0.3-0.7-0.7s0.3-0.7,0.7-0.7c1,0,1.9-0.8,1.9-1.9c0-1-0.8-1.9-1.9-1.9
				c-0.4,0-0.7-0.3-0.7-0.7s0.3-0.7,0.7-0.7c1.9,0,3.4,1.5,3.4,3.4C59.2,24.7,57.7,26.2,55.8,26.2z"/>
		</g>
		<g>
			<path fill="#231F20" d="M46.5,26.2H13.2c-0.4,0-0.7-0.3-0.7-0.7s0.3-0.7,0.7-0.7h33.3c0.4,0,0.7,0.3,0.7,0.7S46.9,26.2,46.5,26.2
				z"/>
		</g>
		<g>
			<path fill="#231F20" d="M3.7,26.2c-1.9,0-3.4-1.5-3.4-3.4c0-1.9,1.5-3.4,3.4-3.4c0.4,0,0.7,0.3,0.7,0.7S4.1,21,3.7,21
				c-1,0-1.9,0.8-1.9,1.9c0,1,0.8,1.9,1.9,1.9c0.4,0,0.7,0.3,0.7,0.7S4.1,26.2,3.7,26.2z"/>
		</g>
		<g>
			<path fill="#231F20" d="M46.3,21H13.1c-0.4,0-0.7-0.3-0.7-0.7s0.3-0.7,0.7-0.7h33.3c0.4,0,0.7,0.3,0.7,0.7S46.8,21,46.3,21z"/>
		</g>
		<g>
			<path fill="#231F20" d="M49.1,35.4c-2.9,0-3.4-1.6-3.4-2.6V13.4c0-1,0.4-2.6,3.4-2.6c2.9,0,3.4,1.6,3.4,2.6v0.1
				c0.3-0.1,0.8-0.2,1.3-0.2c2.5,0,2.8,1.5,2.8,2.2v15c0,0.7-0.3,2.2-2.8,2.2c-0.5,0-0.9-0.1-1.3-0.2v0.1
				C52.5,33.8,52.1,35.4,49.1,35.4z M49.1,12.3c-1.9,0-1.9,0.8-1.9,1.1v19.4c0,0.4,0,1.1,1.9,1.1c1.9,0,1.9-0.8,1.9-1.1v-2
				c0-0.4,0.3-0.7,0.7-0.7c0.4,0,0.7,0.3,0.8,0.7c0,0.2,0,0.6,1.3,0.6c1.3,0,1.3-0.5,1.3-0.7v-15c0-0.3,0-0.7-1.3-0.7
				c-1.2,0-1.3,0.4-1.3,0.6c0,0.4-0.4,0.7-0.8,0.7c-0.4,0-0.7-0.3-0.7-0.7v-2C51,13,51,12.3,49.1,12.3z"/>
		</g>
		<g>
			<path fill="#231F20" d="M10.4,35.4c-2.9,0-3.4-1.6-3.4-2.6v-0.1c-0.3,0.1-0.8,0.2-1.3,0.2c-2.5,0-2.8-1.5-2.8-2.2v-15
				c0-0.7,0.3-2.2,2.8-2.2c0.5,0,0.9,0.1,1.3,0.2v-0.1c0-1,0.4-2.6,3.4-2.6c2.9,0,3.4,1.6,3.4,2.6v19.4
				C13.8,33.8,13.3,35.4,10.4,35.4z M7.8,30C7.8,30,7.8,30,7.8,30c0.4,0,0.7,0.3,0.7,0.7v2c0,0.4,0,1.1,1.9,1.1
				c1.9,0,1.9-0.8,1.9-1.1V13.4c0-0.4,0-1.1-1.9-1.1c-1.9,0-1.9,0.8-1.9,1.1v2c0,0.4-0.3,0.7-0.7,0.7c-0.4,0-0.7-0.3-0.8-0.7
				c0-0.2-0.1-0.6-1.3-0.6c-1.3,0-1.3,0.4-1.3,0.7v15c0,0.3,0,0.7,1.3,0.7C7,31.3,7,30.9,7,30.7C7.1,30.3,7.4,30,7.8,30z"/>
		</g>
	</g>
</g>
</svg>
