<?xml version="1.0" encoding="utf-8"?>
<!-- Generator: Adobe Illustrator 18.1.1, SVG Export Plug-In . SVG Version: 6.00 Build 0)  -->
<svg version="1.1" id="Layer_1" xmlns="http://www.w3.org/2000/svg" xmlns:xlink="http://www.w3.org/1999/xlink" x="0px" y="0px"
	 viewBox="0 0 59.5 46.9" enable-background="new 0 0 59.5 46.9" xml:space="preserve">
<g>
	<g>
		<g>
			<g>
				<path fill="#231F20" d="M4.8,42.5l-1.5,0l0.7,0l-0.7,0c0-0.8,1-20.2,27.4-20.2c23.4,0,24.1-18,24.1-18.2c0-0.4,0.3-0.7,0.7-0.7
					c0,0,0,0,0,0c0.4,0,0.7,0.3,0.7,0.7c0,0.2-0.7,19.6-25.6,19.6C5.7,23.7,4.8,41.7,4.8,42.5z"/>
			</g>
		</g>
		<g>
			<g>
				<path fill="#231F20" d="M32.9,27.2C32.9,27.2,32.9,27.2,32.9,27.2l-6.4-0.1c-0.5,0-0.9-0.4-0.9-0.9l0.1-6.4
					c0-0.5,0.4-0.9,0.9-0.9l6.4,0.1c0,0,0,0,0,0c0.2,0,0.5,0.1,0.6,0.3c0.2,0.2,0.3,0.4,0.3,0.7l-0.1,6.4
					C33.8,26.8,33.4,27.2,32.9,27.2z M27.1,25.6l5.3,0.1l0.1-5.3l-5.3-0.1L27.1,25.6z"/>
			</g>
		</g>
		<g>
			<g>
				<path fill="#231F20" d="M1.2,46.7C1.2,46.7,1.2,46.7,1.2,46.7c-0.5,0-0.9-0.4-0.9-0.9l0-6.5c0-0.5,0.4-0.9,0.9-0.9l6.5,0
					c0.5,0,0.9,0.4,0.9,0.9l0,6.5c0,0.5-0.4,0.9-0.9,0.9L1.2,46.7C1.2,46.7,1.2,46.7,1.2,46.7z M1.7,39.9l0,5.3l5.3,0l0-5.3
					L1.7,39.9z"/>
			</g>
		</g>
		<g>
			<g>
				<path fill="#231F20" d="M52.5,7.9C52.5,7.9,52.5,7.9,52.5,7.9c-0.5,0-0.9-0.4-0.9-0.9l0-5.9c0-0.5,0.4-0.9,0.9-0.9l5.9,0
					c0.5,0,0.9,0.4,0.9,0.9l0,5.9c0,0.5-0.4,0.9-0.9,0.9L52.5,7.9z M53.1,1.7l0,4.7l4.7,0l0-4.7L53.1,1.7z"/>
			</g>
		</g>
		<g>
			<g>
				<g>
					<path fill="#231F20" d="M6,23.7c-0.4,0-0.7-0.3-0.7-0.7c0-0.4,0.3-0.7,0.7-0.7l48.3,0c0.4,0,0.7,0.3,0.7,0.7
						c0,0.4-0.3,0.7-0.7,0.7L6,23.7z"/>
				</g>
			</g>
			<g>
				<g>
					<path fill="#231F20" d="M54.3,25.3c-0.7,0-1.4-0.3-1.8-0.9c-0.8-1-0.6-2.5,0.4-3.3c1-0.8,2.5-0.6,3.3,0.4
						c0.8,1,0.6,2.5-0.4,3.3C55.4,25.1,54.8,25.3,54.3,25.3z M54.3,22.1c-0.1,0-0.3,0-0.5,0.2c-0.2,0.1-0.3,0.3-0.3,0.6
						c0,0.2,0,0.4,0.2,0.6c0.3,0.3,0.8,0.4,1.2,0.1c0.4-0.3,0.4-0.8,0.1-1.2C54.8,22.2,54.6,22.1,54.3,22.1z"/>
				</g>
			</g>
			<g>
				<g>
					<path fill="#231F20" d="M5.9,25.3c-0.7,0-1.4-0.3-1.8-0.9c-0.8-1-0.6-2.5,0.4-3.3c1-0.8,2.5-0.6,3.3,0.4
						c0.4,0.5,0.6,1.1,0.5,1.7c-0.1,0.6-0.4,1.2-0.9,1.6C6.9,25.1,6.4,25.3,5.9,25.3z M5.9,22.1c-0.1,0-0.3,0-0.5,0.2
						C5,22.6,5,23.1,5.2,23.5c0.3,0.3,0.8,0.4,1.2,0.1c0.2-0.1,0.3-0.3,0.3-0.6c0-0.2,0-0.4-0.2-0.6C6.4,22.2,6.1,22.1,5.9,22.1z"/>
				</g>
			</g>
		</g>
	</g>
</g>
<g>
	<g>
		<g>
			<g>
				<g>
					<g>
						<g>
							<g>
								<path fill="#231F20" d="M32.1,97.3H12.5c-1.1,0-2.1-0.9-2.1-2.1V82.1c0-1.1,0.9-2.1,2.1-2.1h19.6c1.1,0,2.1,0.9,2.1,2.1
									v13.1C34.2,96.4,33.2,97.3,32.1,97.3z M12.5,81.5c-0.3,0-0.6,0.3-0.6,0.6v13.1c0,0.3,0.3,0.6,0.6,0.6h19.6
									c0.3,0,0.6-0.3,0.6-0.6V82.1c0-0.3-0.3-0.6-0.6-0.6H12.5z"/>
							</g>
							<g>
								<path fill="#231F20" d="M33.4,93.7H11.2c-0.4,0-0.7-0.3-0.7-0.7c0-0.4,0.3-0.7,0.7-0.7h22.3c0.4,0,0.7,0.3,0.7,0.7
									C34.2,93.3,33.8,93.7,33.4,93.7z"/>
							</g>
						</g>
						<g>
							<defs>
								<path id="SVGID_1_" d="M32.1,97.3H12.5c-1.1,0-2.1-0.9-2.1-2.1V82.1c0-1.1,0.9-2.1,2.1-2.1h19.6c1.1,0,2.1,0.9,2.1,2.1v13.1
									C34.2,96.4,33.2,97.3,32.1,97.3z M12.5,81.5c-0.3,0-0.6,0.3-0.6,0.6v13.1c0,0.3,0.3,0.6,0.6,0.6h19.6c0.3,0,0.6-0.3,0.6-0.6
									V82.1c0-0.3-0.3-0.6-0.6-0.6H12.5z"/>
							</defs>
							<use xlink:href="#SVGID_1_"  overflow="visible" fill="#231F20"/>
							<clipPath id="SVGID_2_">
								<use xlink:href="#SVGID_1_"  overflow="visible"/>
							</clipPath>
						</g>
					</g>
				</g>
			</g>
			<g>
				<g>
					<path fill="#231F20" d="M53.2,109.5H35.1c-0.4,0-0.7-0.3-0.7-0.7v-4.7c0-0.4,0.3-0.7,0.7-0.7c0.4,0,0.7,0.3,0.7,0.7v4h17.3
						c0.4,0,0.7,0.3,0.7,0.7C53.9,109.2,53.6,109.5,53.2,109.5z"/>
				</g>
				<g>
					<path fill="#231F20" d="M54.8,125.9c-1.3,0-2.4-1.1-2.4-2.4v-18.7H8.7v18.7c0,1.3-1.1,2.4-2.4,2.4c-1.3,0-2.4-1.1-2.4-2.4
						v-18.7c-1.5-0.2-2.6-1.4-2.6-2.9c0-1.6,1.3-2.9,2.9-2.9h52.4c1.6,0,2.9,1.3,2.9,2.9c0,1.4-1,2.6-2.3,2.9v18.7
						C57.3,124.9,56.2,125.9,54.8,125.9z M8,103.4h45.2c0.4,0,0.7,0.3,0.7,0.7v19.4c0,0.5,0.4,1,1,1c0.5,0,1-0.4,1-1v-19.4
						c0-0.4,0.3-0.7,0.7-0.7c0.9,0,1.5-0.7,1.5-1.5c0-0.8-0.7-1.5-1.5-1.5H4.2c-0.8,0-1.5,0.7-1.5,1.5c0,0.8,0.7,1.5,1.5,1.5h0.4
						c0.4,0,0.7,0.3,0.7,0.7v19.4c0,0.5,0.4,1,1,1c0.5,0,1-0.4,1-1v-19.4C7.2,103.7,7.5,103.4,8,103.4z"/>
				</g>
			</g>
			<g>
				<g>
					<path fill="#231F20" d="M44.7,93.4c-0.2,0-0.5-0.1-0.7-0.3l-3.9-3.8c-0.3-0.3-0.3-0.6-0.2-1c0.1-0.3,0.4-0.6,0.8-0.6l3.9-0.4
						c0.2,0,0.5,0.1,0.6,0.3l0.6,0.8c0.1,0.2,0.2,0.4,0.2,0.6l-0.4,3.7c0,0.2-0.1,0.4-0.3,0.6C45.2,93.3,44.9,93.4,44.7,93.4z
						 M42,89.1l2.3,2.2l0.3-2.3l-0.2-0.2L42,89.1z"/>
				</g>
			</g>
			<g>
				<path fill="#231F20" d="M22.1,100.3c-0.4,0-0.7-0.3-0.7-0.7v-2.8c0-0.4,0.3-0.7,0.7-0.7s0.7,0.3,0.7,0.7v2.8
					C22.9,100,22.5,100.3,22.1,100.3z"/>
			</g>
		</g>
	</g>
	<g>
		<path fill="#231F20" d="M50,100.3c-0.4,0-0.7-0.3-0.7-0.7v-6.2c0-1.9-0.4-3.2-1.3-3.8c-1.1-0.8-2.7-0.4-2.7-0.4
			c-0.4,0.1-0.8-0.1-0.9-0.5c-0.1-0.4,0.1-0.8,0.5-0.9c0.1,0,2.3-0.7,4,0.6c1.3,0.9,1.9,2.6,1.9,5v6.2C50.7,100,50.4,100.3,50,100.3
			z"/>
	</g>
</g>
<g>
	<g>
		<path fill="#231F20" d="M109.8,126.6c-10.6,0-16.1-3.1-20.8-6.2c-5.6-3.7-7.2-25.2-7.2-27.4c0-2.5,1-12,1.1-12.4
			c0-0.3,0.3-0.6,0.6-0.6c0.3,0,0.6,0.1,0.8,0.4c0,0.1,2.3,5.5,4.1,8.9c1.4,2.8,5,4.2,6.1,4.6c4.7-2.7,8.2-3.9,10.8-3.9
			c1.5,0,2.5,0.4,3.5,0.9c0.2,0.1,0.3,0.2,0.5,0.2c0.2,0.1,0.5,0.2,0.7,0.3c0.2-0.1,0.4-0.2,0.7-0.3c0.1-0.1,0.3-0.1,0.5-0.2
			c0.9-0.4,1.9-0.9,3.5-0.9c2.6,0,6.2,1.3,10.8,3.9c1-0.4,4.6-1.8,6.1-4.6c1.8-3.5,4.1-8.9,4.1-8.9c0.1-0.3,0.4-0.5,0.8-0.4
			c0.3,0,0.6,0.3,0.6,0.6c0,0.4,1.1,9.9,1.1,12.4c0,2.2-1.7,23.7-7.2,27.4C125.8,123.6,120.4,126.6,109.8,126.6z M84,83.4
			c-0.3,3.1-0.8,8-0.8,9.6c0,3,2,23.1,6.6,26.2c4.5,3,9.8,5.9,20,5.9c10.2,0,15.3-2.8,20-5.9c4.6-3.1,6.6-23.2,6.6-26.2
			c0-1.6-0.5-6.5-0.8-9.6c-0.8,1.9-2,4.6-3.1,6.6c-2,3.8-7,5.3-7.2,5.4c-0.2,0.1-0.4,0-0.6-0.1c-4.6-2.6-8-3.9-10.4-3.9
			c-1.2,0-2,0.3-2.8,0.7c-0.2,0.1-0.4,0.2-0.5,0.2c-0.5,0.2-0.5,0.2-0.5,0.3c-0.1,0.3-0.4,0.5-0.7,0.5h0c-0.3,0-0.6-0.2-0.7-0.5
			c0-0.1,0-0.1-0.5-0.3c-0.1-0.1-0.3-0.1-0.5-0.2c-0.8-0.4-1.6-0.7-2.8-0.7c-2.4,0-5.8,1.3-10.4,3.9c-0.2,0.1-0.4,0.1-0.6,0.1
			C94,95.4,89,93.8,87,90C86,88,84.8,85.4,84,83.4z M114.3,102.3h-9c-4,0-5.4-0.4-6.7-4.9c-0.1-0.2,0-0.4,0.1-0.6
			c0.1-0.2,0.3-0.3,0.5-0.3c0.2,0,4.1-0.9,8.5-0.9c0.7,0,1.5,0,2.1,0.1c0.7,0,1.4-0.1,2.2-0.1c4.4,0,8.3,0.8,8.5,0.9
			c0.2,0,0.4,0.2,0.5,0.3c0.1,0.2,0.1,0.4,0.1,0.6C119.6,101.9,117.4,102.3,114.3,102.3z M100.2,97.7c1,3,1.8,3.1,5.1,3.1h9
			c2.6,0,4.1-0.1,5.1-3.1c-1.3-0.2-4.3-0.7-7.4-0.7c-0.7,0-1.4,0-2,0.1c0,0-0.1,0-0.1,0c-0.1,0-0.1,0-0.1,0c-0.6,0-1.3-0.1-2-0.1
			C104.5,97,101.5,97.5,100.2,97.7z"/>
	</g>
</g>
<g>
	<g>
		<g>
			<g>
				<g>
					<g>
						<path fill="#231F20" d="M-56.1,104.5c-0.3,0-0.5-0.2-0.6-0.5c-0.1-0.5,0.3-0.7,0.5-0.8c3.3-1.4,3.9-2.7,4-3.3
							c0.3-1.9-0.9-4.1-3.7-6.9c-5-5-2.3-8.6-2.2-8.8c0.2-0.3,0.6-0.3,0.8-0.1c0.3,0.2,0.3,0.6,0.1,0.8c-0.1,0.1-2.2,2.9,2.1,7.2
							c3.1,3.1,4.4,5.6,4,7.9c-0.2,1.5-1.8,2.9-4.7,4.2l-0.1,0C-55.9,104.5-56,104.5-56.1,104.5z"/>
					</g>
				</g>
			</g>
			<g>
				<g>
					<g>
						<path fill="#231F20" d="M-60,104.1c-0.1,0-0.2,0-0.3-0.1c-0.3-0.2-0.4-0.5-0.2-0.8c2.8-4.6,0.7-6.7-2.1-9.5
							c-0.6-0.6-1.2-1.2-1.9-1.9c-1.3-1.5-1.9-3.1-1.6-4.8c0.7-4,5.9-6.9,6.1-7c0.3-0.2,0.6-0.1,0.8,0.2c0.2,0.3,0.1,0.6-0.2,0.8
							c0,0-4.9,2.7-5.5,6.2c-0.2,1.3,0.2,2.5,1.3,3.8c0.6,0.7,1.2,1.3,1.8,1.9c2.9,2.9,5.6,5.6,2.3,11
							C-59.6,104-59.8,104.1-60,104.1z"/>
					</g>
				</g>
			</g>
			<g>
				<g>
					<g>
						<path fill="#231F20" d="M-65.5,104c0,0-0.1,0-0.1,0c-0.3-0.1-0.5-0.4-0.5-0.7c1-5.1-1.7-6.4-5.1-8.2c-1.4-0.7-2.3-1.8-2.5-3.1
							c-0.6-3.1,2.4-6.7,2.5-6.9c0.2-0.2,0.6-0.3,0.8-0.1c0.2,0.2,0.3,0.6,0.1,0.8c0,0-2.8,3.3-2.3,5.9c0.2,1,0.8,1.7,1.9,2.3
							c3.5,1.8,6.8,3.5,5.7,9.5C-64.9,103.8-65.2,104-65.5,104z"/>
					</g>
				</g>
			</g>
			<g>
				<g>
					<g>
						<path fill="#231F20" d="M-53.2,123.2c-0.2,0-0.4-0.1-0.5-0.3c-0.2-0.3,0-0.6,0.2-0.8c1.7-0.9,3-2.2,4-4
							c0.1-0.2,0.3-0.3,0.4-0.3c2.7-0.4,4.6-2.5,4.6-5.3c0-2.1-0.7-4.7-2.6-5.4h-25.8c0,4.5,0,11.9,5.9,15c0.3,0.2,0.4,0.5,0.2,0.8
							c-0.2,0.3-0.5,0.4-0.8,0.2c-6.5-3.4-6.5-11.7-6.5-16.1l0-0.5c0-0.3,0.3-0.6,0.6-0.6H-47c0.1,0,0.1,0,0.2,0
							c2.6,0.9,3.5,4.1,3.5,6.6c0,3.3-2.1,5.9-5.3,6.5c-1,1.8-2.5,3.2-4.3,4.2C-53,123.2-53.1,123.2-53.2,123.2z"/>
					</g>
				</g>
			</g>
			<g>
				<g>
					<g>
						<path fill="#231F20" d="M-60.4,126.9c-2.7,0-7.2-0.3-11-0.9c-6.6-1.1-7.4-2.4-7.4-3.4c0-0.3,0.3-0.6,0.6-0.6h35.9
							c0.3,0,0.6,0.3,0.6,0.6c0,1.6-2.2,2.8-7,3.5C-51.9,126.6-56.3,126.9-60.4,126.9z M-77.1,123.2c1.9,1.2,9.3,2.5,16.7,2.5
							c8.3,0,15.6-1.1,17.2-2.5H-77.1z"/>
					</g>
				</g>
			</g>
		</g>
	</g>
	<g>
		<path fill="#231F20" d="M-48.6,115.6c0,0-0.1,0-0.1,0c-0.3-0.1-0.5-0.4-0.5-0.7l1.2-5.4c0.1-0.3,0.4-0.5,0.7-0.5
			c0.3,0.1,0.5,0.4,0.5,0.7l-1.2,5.4C-48.1,115.4-48.3,115.6-48.6,115.6z"/>
	</g>
</g>
<g>
	<g>
		<g>
			<g>
				<path fill="#231F20" d="M171.1,107.5c-0.1,0-0.3,0-0.4-0.1c-0.3-0.2-0.4-0.7-0.2-1l7.5-11c0.1-0.1,0.2-0.2,0.4-0.3l2.3-0.9
					l5.2-6.9c0.1-0.1,0.2-0.2,0.3-0.2l3.1-1.3c0.2-0.1,0.5-0.1,0.7,0.1l2.7,2c0.1,0,0.1,0.1,0.2,0.1l9,11.9l2.2,0.6
					c0.2,0.1,0.3,0.2,0.4,0.3l3.2,5.2c0.2,0.3,0.1,0.8-0.2,1c-0.3,0.2-0.8,0.1-1-0.2l-3.1-4.9l-2.2-0.6c-0.2,0-0.3-0.1-0.4-0.3
					l-9.1-12l-2.3-1.7l-2.5,1l-5.2,6.9c-0.1,0.1-0.2,0.2-0.3,0.2l-2.3,0.9l-7.4,10.8C171.5,107.4,171.3,107.5,171.1,107.5z"/>
			</g>
		</g>
		<g>
			<g>
				<path fill="#231F20" d="M160.7,122.9c-0.1,0-0.3,0-0.4-0.1c-0.3-0.2-0.5-0.7-0.2-1l9.2-15c0.1-0.1,0.2-0.3,0.4-0.3l2.6-0.9
					c0.1,0,0.3,0,0.4,0l14.3,3.1l16.3-4.5c0.2,0,0.3,0,0.5,0l6.4,2.8c0.1,0.1,0.3,0.2,0.3,0.3l8.3,14.4c0.2,0.4,0.1,0.8-0.3,1
					c-0.4,0.2-0.8,0.1-1-0.3l-8.2-14.2l-6-2.6l-16.2,4.5c-0.1,0-0.2,0-0.4,0l-14.2-3.1l-2.1,0.7l-9,14.8
					C161.2,122.8,161,122.9,160.7,122.9z"/>
			</g>
		</g>
		<g>
			<g>
				<path fill="#231F20" d="M188.9,104.8c-0.1,0-0.1,0-0.2,0l-8.9-2.1c-0.3-0.1-0.5-0.3-0.6-0.6l-1.4-6.1c-0.1-0.4,0.1-0.7,0.5-0.9
					l2.5-0.9c0.4-0.1,0.8,0.1,1,0.4c0.1,0.4-0.1,0.8-0.4,1l-1.9,0.7l1.1,5l8.3,2l14.8-2.7c0.4-0.1,0.8,0.2,0.9,0.6
					c0.1,0.4-0.2,0.8-0.6,0.9l-15,2.7C189,104.8,188.9,104.8,188.9,104.8z"/>
			</g>
		</g>
	</g>
</g>
<g>
	<g>
		<g>
			<g>
				<path fill="#231F20" d="M271.8,126.9h-3.4c-0.3,0-0.6-0.3-0.6-0.6v-4.1l-5.8,3.4c-0.2,0.1-0.4,0.1-0.6,0
					c-0.2-0.1-0.3-0.3-0.3-0.5v-3.4c0-0.2,0.1-0.4,0.3-0.5l6.4-3.6v-2.7l-6,3.2c-0.2,0.1-0.4,0.1-0.6,0c-0.2-0.1-0.3-0.3-0.3-0.5
					V111l-2.3,1.4v7.3c0,0.2-0.1,0.4-0.3,0.5l-2.9,1.6c-0.2,0.1-0.4,0.1-0.6,0c-0.2-0.1-0.3-0.3-0.3-0.5v-6.6l-3.8,2.1
					c-0.1,0.1-0.3,0.1-0.5,0.1c-0.2,0-0.3-0.1-0.4-0.3l-1.5-2.6c-0.1-0.1-0.1-0.3-0.1-0.5c0-0.2,0.1-0.3,0.3-0.4l3.6-2l-5.7-3.4
					c-0.2-0.1-0.3-0.3-0.3-0.5c0-0.2,0.1-0.4,0.3-0.5l2.6-1.6c0.2-0.1,0.4-0.1,0.6,0l6.9,3.5l2.3-1.4l-6-3.4
					c-0.2-0.1-0.3-0.3-0.3-0.5c0-0.2,0.1-0.4,0.3-0.5l6-3.3l-2.3-1.5l-6.9,3.8c-0.2,0.1-0.4,0.1-0.6,0l-2.9-1.8
					c-0.2-0.1-0.3-0.3-0.3-0.5c0-0.2,0.1-0.4,0.3-0.5l5.9-3.3l-3.4-2.1c-0.3-0.2-0.4-0.5-0.2-0.8L250,90c0.1-0.1,0.2-0.3,0.4-0.3
					c0.2,0,0.3,0,0.5,0.1l3.6,2.1v-6.7c0-0.2,0.1-0.4,0.3-0.5c0.2-0.1,0.4-0.1,0.6,0l2.9,1.8c0.2,0.1,0.3,0.3,0.3,0.5v7.4l2.3,1.3
					V89c0-0.2,0.1-0.4,0.3-0.5c0.2-0.1,0.4-0.1,0.6,0l6,3.3v-2.6l-6.4-3.8c-0.2-0.1-0.3-0.3-0.3-0.5v-3.5c0-0.2,0.1-0.4,0.3-0.5
					c0.2-0.1,0.4-0.1,0.6,0l5.8,3.2v-3.4c0-0.3,0.3-0.6,0.6-0.6h3.4c0.3,0,0.6,0.3,0.6,0.6V84l5.7-3.2c0.2-0.1,0.4-0.1,0.6,0
					c0.2,0.1,0.3,0.3,0.3,0.5v3.5c0,0.2-0.1,0.4-0.3,0.5l-6.3,3.8v2.6l5.7-3.3c0.2-0.1,0.4-0.1,0.6,0c0.2,0.1,0.3,0.3,0.3,0.5v6.7
					l2.3-1.3v-7.4c0-0.2,0.1-0.4,0.3-0.5l3.2-1.8c0.2-0.1,0.4-0.1,0.6,0c0.2,0.1,0.3,0.3,0.3,0.5v6.7l3.5-2.1
					c0.1-0.1,0.3-0.1,0.5-0.1c0.2,0,0.3,0.1,0.4,0.3l1.6,2.8c0.2,0.3,0.1,0.7-0.2,0.8l-3.6,2.1l5.8,3.3c0.2,0.1,0.3,0.3,0.3,0.5
					c0,0.2-0.1,0.4-0.3,0.5l-2.9,1.8c-0.2,0.1-0.4,0.1-0.6,0l-6.7-3.8l-2.3,1.5l6,3.3c0.2,0.1,0.3,0.3,0.3,0.5
					c0,0.2-0.1,0.4-0.3,0.5l-6,3.4l2.3,1.4l6.9-3.5c0.2-0.1,0.4-0.1,0.6,0l2.8,1.6c0.2,0.1,0.3,0.3,0.3,0.5s-0.1,0.4-0.3,0.5
					l-5.8,3.4l3.6,2c0.1,0.1,0.2,0.2,0.3,0.4c0,0.2,0,0.3-0.1,0.5l-1.5,2.6c-0.1,0.1-0.2,0.2-0.4,0.3c-0.2,0-0.3,0-0.5-0.1l-3.6-2.1
					v6.6c0,0.2-0.1,0.4-0.3,0.5c-0.2,0.1-0.4,0.1-0.6,0l-3.2-1.6c-0.2-0.1-0.3-0.3-0.3-0.5v-7.3L279,111v6.5c0,0.2-0.1,0.4-0.3,0.5
					c-0.2,0.1-0.4,0.1-0.6,0l-5.7-3.2v2.7l6.3,3.6c0.2,0.1,0.3,0.3,0.3,0.5v3.4c0,0.2-0.1,0.4-0.3,0.5c-0.2,0.1-0.4,0.1-0.6,0
					l-5.7-3.4v4.1C272.4,126.7,272.1,126.9,271.8,126.9z M269,125.7h2.2v-4.5c0-0.2,0.1-0.4,0.3-0.5c0.2-0.1,0.4-0.1,0.6,0l5.7,3.4
					v-2l-6.3-3.6c-0.2-0.1-0.3-0.3-0.3-0.5v-4.1c0-0.2,0.1-0.4,0.3-0.5c0.2-0.1,0.4-0.1,0.6,0l5.7,3.2v-6.6c0-0.2,0.1-0.4,0.3-0.5
					c0.2-0.1,0.4-0.1,0.6,0l3.5,2.2c0.2,0.1,0.3,0.3,0.3,0.5v7.2l2,1v-6.6c0-0.2,0.1-0.4,0.3-0.5c0.2-0.1,0.4-0.1,0.6,0l4,2.3
					l0.9-1.6l-4-2.2c-0.2-0.1-0.3-0.3-0.3-0.5c0-0.2,0.1-0.4,0.3-0.5l5.8-3.4l-1.6-0.9l-6.9,3.5c-0.2,0.1-0.4,0.1-0.6,0l-3.5-2.1
					c-0.2-0.1-0.3-0.3-0.3-0.5c0-0.2,0.1-0.4,0.3-0.5l6-3.4l-5.9-3.3c-0.2-0.1-0.3-0.3-0.3-0.5c0-0.2,0.1-0.4,0.3-0.5l3.5-2.2
					c0.2-0.1,0.4-0.1,0.6,0l6.7,3.8l1.7-1l-5.8-3.3c-0.2-0.1-0.3-0.3-0.3-0.5c0-0.2,0.1-0.4,0.3-0.5l4-2.3l-1-1.7l-3.9,2.3
					c-0.2,0.1-0.4,0.1-0.6,0c-0.2-0.1-0.3-0.3-0.3-0.5v-6.7l-2,1.1v7.4c0,0.2-0.1,0.4-0.3,0.5l-3.5,2.1c-0.2,0.1-0.4,0.1-0.6,0
					c-0.2-0.1-0.3-0.3-0.3-0.5V90l-5.7,3.3c-0.2,0.1-0.4,0.1-0.6,0c-0.2-0.1-0.3-0.3-0.3-0.5v-4c0-0.2,0.1-0.4,0.3-0.5l6.3-3.8v-2.1
					l-5.7,3.2c-0.2,0.1-0.4,0.1-0.6,0c-0.2-0.1-0.3-0.3-0.3-0.5v-3.8H269V85c0,0.2-0.1,0.4-0.3,0.5c-0.2,0.1-0.4,0.1-0.6,0l-5.8-3.2
					v2.2l6.4,3.8c0.2,0.1,0.3,0.3,0.3,0.5v4c0,0.2-0.1,0.4-0.3,0.5c-0.2,0.1-0.4,0.1-0.6,0l-6-3.3v6.7c0,0.2-0.1,0.4-0.3,0.5
					c-0.2,0.1-0.4,0.1-0.6,0l-3.5-2.1c-0.2-0.1-0.3-0.3-0.3-0.5v-7.4l-1.7-1v6.7c0,0.2-0.1,0.4-0.3,0.5c-0.2,0.1-0.4,0.1-0.6,0
					l-4-2.3l-0.9,1.7l3.8,2.3c0.2,0.1,0.3,0.3,0.3,0.5c0,0.2-0.1,0.4-0.3,0.5l-5.8,3.3l1.7,1l6.9-3.8c0.2-0.1,0.4-0.1,0.6,0l3.5,2.2
					c0.2,0.1,0.3,0.3,0.3,0.5c0,0.2-0.1,0.4-0.3,0.5l-5.9,3.3l6,3.4c0.2,0.1,0.3,0.3,0.3,0.5c0,0.2-0.1,0.4-0.3,0.5l-3.5,2.1
					c-0.2,0.1-0.4,0.1-0.6,0l-6.9-3.5l-1.5,0.9l5.7,3.4c0.2,0.1,0.3,0.3,0.3,0.5c0,0.2-0.1,0.4-0.3,0.5l-4,2.2l0.9,1.6l4.2-2.3
					c0.2-0.1,0.4-0.1,0.6,0c0.2,0.1,0.3,0.3,0.3,0.5v6.6l1.7-0.9v-7.3c0-0.2,0.1-0.4,0.3-0.5l3.5-2.2c0.2-0.1,0.4-0.1,0.6,0
					c0.2,0.1,0.3,0.3,0.3,0.5v6.6l6-3.2c0.2-0.1,0.4-0.1,0.6,0c0.2,0.1,0.3,0.3,0.3,0.5v4.1c0,0.2-0.1,0.4-0.3,0.5l-6.4,3.6v2
					l5.8-3.4c0.2-0.1,0.4-0.1,0.6,0c0.2,0.1,0.3,0.3,0.3,0.5V125.7z M275.4,112.4c-0.1,0-0.2,0-0.2-0.1l-3.7-1.6
					c-0.2-0.1-0.4-0.3-0.4-0.6v-4.4c0-0.2,0.1-0.4,0.3-0.5c0.2-0.1,0.4-0.1,0.6,0l3.7,2.3c0.2,0.1,0.3,0.3,0.3,0.5v3.7
					c0,0.2-0.1,0.4-0.3,0.5C275.7,112.4,275.6,112.4,275.4,112.4z M272.4,109.8l2.5,1.1v-2.4l-2.5-1.6V109.8z M264.6,112.4
					c-0.1,0-0.2,0-0.3-0.1c-0.2-0.1-0.3-0.3-0.3-0.5v-4.1c0-0.2,0.1-0.4,0.3-0.5l3.8-1.9c0.2-0.1,0.4-0.1,0.6,0
					c0.2,0.1,0.3,0.3,0.3,0.5v4.4c0,0.2-0.1,0.5-0.4,0.6l-3.8,1.6C264.8,112.4,264.7,112.4,264.6,112.4z M265.2,108.1v2.8l2.6-1.1
					v-3L265.2,108.1z M277.1,106c-0.1,0-0.2,0-0.3-0.1l-3.5-2.1c-0.2-0.1-0.3-0.3-0.3-0.5c0-0.2,0.1-0.4,0.3-0.5l3.5-1.9
					c0.2-0.1,0.4-0.1,0.6,0l3.7,1.9c0.2,0.1,0.3,0.3,0.3,0.5c0,0.2-0.1,0.4-0.3,0.5l-3.7,2.1C277.3,105.9,277.2,106,277.1,106z
					 M274.8,103.3l2.3,1.3l2.4-1.3l-2.4-1.2L274.8,103.3z M263.4,106c-0.1,0-0.2,0-0.3-0.1l-3.7-2.1c-0.2-0.1-0.3-0.3-0.3-0.5
					c0-0.2,0.1-0.4,0.3-0.5l3.7-1.9c0.2-0.1,0.4-0.1,0.6,0l3.7,1.9c0.2,0.1,0.3,0.3,0.3,0.5c0,0.2-0.1,0.4-0.3,0.5l-3.7,2.1
					C263.6,105.9,263.5,106,263.4,106z M261,103.3l2.4,1.3l2.4-1.3l-2.4-1.2L261,103.3z M271.8,101.6c-0.1,0-0.2,0-0.3-0.1
					c-0.2-0.1-0.3-0.3-0.3-0.5v-4.4c0-0.2,0.1-0.5,0.4-0.6l3.7-1.6c0.2-0.1,0.4-0.1,0.6,0c0.2,0.1,0.3,0.3,0.3,0.5v3.7
					c0,0.2-0.1,0.4-0.3,0.5l-3.7,2.3C272,101.5,271.9,101.6,271.8,101.6z M272.4,97v2.9l2.5-1.6v-2.4L272.4,97z M268.4,101.6
					c-0.1,0-0.2,0-0.3-0.1l-3.8-2.1c-0.2-0.1-0.3-0.3-0.3-0.5v-4c0-0.2,0.1-0.4,0.3-0.5c0.2-0.1,0.4-0.1,0.6-0.1l3.8,1.6
					c0.2,0.1,0.4,0.3,0.4,0.6v4.4c0,0.2-0.1,0.4-0.3,0.5C268.6,101.5,268.5,101.6,268.4,101.6z M265.2,98.6l2.6,1.4v-3l-2.6-1.1
					V98.6z"/>
			</g>
		</g>
	</g>
</g>
<g>
	<g>
		<g>
			<path fill="#231F20" d="M376.1,112.6c-0.4,0-0.8-0.3-0.8-0.8s0.3-0.8,0.8-0.8c1,0,1.9-0.8,1.9-1.9c0-1-0.9-1.9-1.9-1.9
				c-0.4,0-0.8-0.3-0.8-0.8s0.3-0.8,0.8-0.8c1.9,0,3.4,1.5,3.4,3.4C379.5,111.1,378,112.6,376.1,112.6z"/>
		</g>
		<g>
			<path fill="#231F20" d="M366.7,112.6H333c-0.4,0-0.8-0.3-0.8-0.8s0.3-0.8,0.8-0.8h33.6c0.4,0,0.8,0.3,0.8,0.8
				S367.1,112.6,366.7,112.6z"/>
		</g>
		<g>
			<path fill="#231F20" d="M323.4,112.6c-1.9,0-3.4-1.5-3.4-3.4c0-1.9,1.5-3.4,3.4-3.4c0.4,0,0.8,0.3,0.8,0.8s-0.3,0.8-0.8,0.8
				c-1,0-1.9,0.8-1.9,1.9c0,1,0.9,1.9,1.9,1.9c0.4,0,0.8,0.3,0.8,0.8S323.8,112.6,323.4,112.6z"/>
		</g>
		<g>
			<path fill="#231F20" d="M366.5,107.3h-33.6c-0.4,0-0.8-0.3-0.8-0.8s0.3-0.8,0.8-0.8h33.6c0.4,0,0.8,0.3,0.8,0.8
				S366.9,107.3,366.5,107.3z"/>
		</g>
		<g>
			<path fill="#231F20" d="M369.3,121.9c-3,0-3.4-1.7-3.4-2.7V99.7c0-1,0.4-2.7,3.4-2.7c3,0,3.4,1.7,3.4,2.7v0.1
				c0.3-0.1,0.8-0.2,1.3-0.2c2.5,0,2.8,1.6,2.8,2.2v15.2c0,0.7-0.3,2.2-2.8,2.2c-0.5,0-0.9-0.1-1.3-0.2v0.1
				C372.7,120.2,372.3,121.9,369.3,121.9z M369.3,98.5c-1.9,0-1.9,0.8-1.9,1.2v19.6c0,0.4,0,1.2,1.9,1.2c1.9,0,1.9-0.8,1.9-1.2v-2
				c0-0.4,0.3-0.7,0.7-0.7c0.4,0,0.7,0.3,0.8,0.7c0,0.2,0,0.6,1.3,0.6c1.3,0,1.3-0.5,1.3-0.7v-15.2c0-0.3,0-0.7-1.3-0.7
				c-1.2,0-1.3,0.4-1.3,0.6c0,0.4-0.4,0.7-0.8,0.7c-0.4,0-0.7-0.3-0.7-0.7v-2C371.2,99.3,371.2,98.5,369.3,98.5z"/>
		</g>
		<g>
			<path fill="#231F20" d="M330.2,121.9c-3,0-3.4-1.7-3.4-2.7v-0.1c-0.3,0.1-0.8,0.2-1.3,0.2c-2.5,0-2.8-1.6-2.8-2.2v-15.2
				c0-0.7,0.3-2.2,2.8-2.2c0.5,0,0.9,0.1,1.3,0.2v-0.1c0-1,0.4-2.7,3.4-2.7c3,0,3.4,1.7,3.4,2.7v19.6
				C333.6,120.2,333.1,121.9,330.2,121.9z M327.5,116.4C327.6,116.4,327.6,116.4,327.5,116.4c0.4,0,0.8,0.3,0.8,0.8v2
				c0,0.4,0,1.2,1.9,1.2c1.9,0,1.9-0.8,1.9-1.2V99.7c0-0.4,0-1.2-1.9-1.2c-1.9,0-1.9,0.8-1.9,1.2v2c0,0.4-0.3,0.7-0.7,0.7
				c-0.4,0-0.7-0.3-0.8-0.7c0-0.2-0.1-0.6-1.3-0.6c-1.3,0-1.3,0.5-1.3,0.7v15.2c0,0.3,0,0.7,1.3,0.7c1.2,0,1.3-0.4,1.3-0.6
				C326.8,116.7,327.2,116.4,327.5,116.4z"/>
		</g>
	</g>
</g>
</svg>
